<svg width="21" height="21" viewBox="0 0 21 21" fill="none" xmlns="http://www.w3.org/2000/svg">
<rect width="21" height="21" rx="2" fill="#FFDBCE"/>
<path d="M8.62143 4.48398L8.42857 4.875H5.85714C5.38304 4.875 5 5.26602 5 5.75C5 6.23398 5.38304 6.625 5.85714 6.625H16.1429C16.617 6.625 17 6.23398 17 5.75C17 5.26602 16.617 4.875 16.1429 4.875H13.5714L13.3786 4.48398C13.2339 4.18594 12.9366 4 12.6125 4H9.3875C9.06339 4 8.76607 4.18594 8.62143 4.48398ZM16.1429 7.5H5.85714L6.425 16.7695C6.46786 17.4613 7.03036 18 7.70804 18H14.292C14.9696 18 15.5321 17.4613 15.575 16.7695L16.1429 7.5Z" fill="#4F000B"/>
</svg>
