<svg width="21" height="21" viewBox="0 0 21 21" fill="none" xmlns="http://www.w3.org/2000/svg">
<rect width="21" height="21" rx="2" fill="#FFDBCE"/>
<path d="M14.209 4.47607L12.9801 5.70498L16.2809 9.00576L17.5098 7.77686C18.1446 7.14209 18.1446 6.11377 17.5098 5.479L16.5094 4.47607C15.8746 3.84131 14.8463 3.84131 14.2115 4.47607H14.209ZM12.4063 6.27881L6.48771 12.1999C6.22365 12.464 6.03068 12.7915 5.92404 13.1495L5.02521 16.204C4.96174 16.4198 5.02014 16.6509 5.17756 16.8083C5.33498 16.9657 5.56603 17.0241 5.77932 16.9632L8.83381 16.0644C9.19182 15.9577 9.51936 15.7647 9.78342 15.5007L15.7071 9.57959L12.4063 6.27881Z" fill="#4F000B"/>
</svg>
