<svg width="160" height="135" viewBox="0 0 160 135" fill="none" xmlns="http://www.w3.org/2000/svg">
<ellipse cx="79.5612" cy="67.5" rx="79.5612" ry="67.5" fill="#FFCBA6"/>
<path d="M42.68 66.4364C39.4208 66.4364 36.666 65.2081 34.4156 62.7515C32.1652 60.295 31.04 57.2878 31.04 53.73C31.04 50.1722 32.1652 47.165 34.4156 44.7084C36.666 42.2519 39.4208 41.0236 42.68 41.0236C45.9392 41.0236 48.694 42.2519 50.9444 44.7084C53.1948 47.165 54.32 50.1722 54.32 53.73C54.32 57.2878 53.1948 60.295 50.9444 62.7515C48.694 65.2081 45.9392 66.4364 42.68 66.4364ZM63.6319 46.1061C60.3727 46.1061 57.618 44.8779 55.3676 42.4213C53.1172 39.9647 51.992 36.9575 51.992 33.3997C51.992 29.8419 53.1172 26.8347 55.3676 24.3782C57.618 21.9216 60.3727 20.6933 63.6319 20.6933C66.8911 20.6933 69.6459 21.9216 71.8963 24.3782C74.1467 26.8347 75.2719 29.8419 75.2719 33.3997C75.2719 36.9575 74.1467 39.9647 71.8963 42.4213C69.6459 44.8779 66.8911 46.1061 63.6319 46.1061ZM91.5679 46.1061C88.3087 46.1061 85.5539 44.8779 83.3035 42.4213C81.0531 39.9647 79.9279 36.9575 79.9279 33.3997C79.9279 29.8419 81.0531 26.8347 83.3035 24.3782C85.5539 21.9216 88.3087 20.6933 91.5679 20.6933C94.8271 20.6933 97.5819 21.9216 99.8323 24.3782C102.083 26.8347 103.208 29.8419 103.208 33.3997C103.208 36.9575 102.083 39.9647 99.8323 42.4213C97.5819 44.8779 94.8271 46.1061 91.5679 46.1061ZM112.52 66.4364C109.261 66.4364 106.506 65.2081 104.256 62.7515C102.005 60.295 100.88 57.2878 100.88 53.73C100.88 50.1722 102.005 47.165 104.256 44.7084C106.506 42.2519 109.261 41.0236 112.52 41.0236C115.779 41.0236 118.534 42.2519 120.784 44.7084C123.035 47.165 124.16 50.1722 124.16 53.73C124.16 57.2878 123.035 60.295 120.784 62.7515C118.534 65.2081 115.779 66.4364 112.52 66.4364ZM52.6904 117.262C49.1984 117.262 46.2682 115.802 43.8998 112.881C41.5315 109.96 40.3489 106.507 40.352 102.523C40.352 98.1178 41.7301 94.2635 44.4865 90.9598C47.2428 87.6561 49.9775 84.3948 52.6904 81.1759C54.9408 78.5499 56.8808 75.6918 58.5104 72.6016C60.1399 69.5114 62.0799 66.6092 64.3303 63.8951C66.0375 61.6927 68.0163 59.8714 70.2667 58.4314C72.5171 56.9913 74.9615 56.2713 77.5999 56.2713C80.2383 56.2713 82.6827 56.9489 84.9331 58.3043C87.1835 59.6597 89.1623 61.4386 90.8695 63.641C93.0423 66.3517 94.9637 69.2742 96.6336 72.4084C98.3036 75.5427 100.262 78.4652 102.51 81.1759C105.226 84.3948 107.96 87.6561 110.713 90.9598C113.467 94.2635 114.845 98.1178 114.848 102.523C114.848 106.504 113.664 109.957 111.295 112.881C108.927 115.805 105.998 117.265 102.51 117.262C98.3191 117.262 94.1675 116.881 90.0547 116.119C85.9419 115.356 81.7903 114.975 77.5999 114.975C73.4095 114.975 69.2579 115.356 65.1451 116.119C61.0323 116.881 56.8808 117.262 52.6904 117.262Z" fill="#861928"/>
</svg>
