<svg width="47" height="40" viewBox="0 0 47 40" fill="none" xmlns="http://www.w3.org/2000/svg">
<ellipse cx="23.0687" cy="19.5715" rx="23.0687" ry="19.5715" fill="#FFCBA6"/>
<path d="M12.375 19.2632C11.43 19.2632 10.6312 18.907 9.97875 18.1947C9.32625 17.4825 9 16.6105 9 15.5789C9 14.5474 9.32625 13.6754 9.97875 12.9632C10.6312 12.2509 11.43 11.8947 12.375 11.8947C13.32 11.8947 14.1188 12.2509 14.7713 12.9632C15.4238 13.6754 15.75 14.5474 15.75 15.5789C15.75 16.6105 15.4238 17.4825 14.7713 18.1947C14.1188 18.907 13.32 19.2632 12.375 19.2632ZM18.45 13.3684C17.505 13.3684 16.7063 13.0123 16.0538 12.3C15.4012 11.5877 15.075 10.7158 15.075 9.68421C15.075 8.65263 15.4012 7.7807 16.0538 7.06842C16.7063 6.35614 17.505 6 18.45 6C19.395 6 20.1937 6.35614 20.8462 7.06842C21.4987 7.7807 21.825 8.65263 21.825 9.68421C21.825 10.7158 21.4987 11.5877 20.8462 12.3C20.1937 13.0123 19.395 13.3684 18.45 13.3684ZM26.55 13.3684C25.605 13.3684 24.8063 13.0123 24.1538 12.3C23.5013 11.5877 23.175 10.7158 23.175 9.68421C23.175 8.65263 23.5013 7.7807 24.1538 7.06842C24.8063 6.35614 25.605 6 26.55 6C27.495 6 28.2938 6.35614 28.9462 7.06842C29.5987 7.7807 29.925 8.65263 29.925 9.68421C29.925 10.7158 29.5987 11.5877 28.9462 12.3C28.2938 13.0123 27.495 13.3684 26.55 13.3684ZM32.625 19.2632C31.68 19.2632 30.8813 18.907 30.2288 18.1947C29.5763 17.4825 29.25 16.6105 29.25 15.5789C29.25 14.5474 29.5763 13.6754 30.2288 12.9632C30.8813 12.2509 31.68 11.8947 32.625 11.8947C33.57 11.8947 34.3687 12.2509 35.0212 12.9632C35.6737 13.6754 36 14.5474 36 15.5789C36 16.6105 35.6737 17.4825 35.0212 18.1947C34.3687 18.907 33.57 19.2632 32.625 19.2632ZM15.2775 34C14.265 34 13.4154 33.5766 12.7287 32.7297C12.042 31.8828 11.6991 30.8817 11.7 29.7263C11.7 28.4491 12.0996 27.3316 12.8988 26.3737C13.698 25.4158 14.4909 24.4702 15.2775 23.5368C15.93 22.7754 16.4925 21.9467 16.965 21.0507C17.4375 20.1547 18 19.3133 18.6525 18.5263C19.1475 17.8877 19.7213 17.3596 20.3738 16.9421C21.0263 16.5246 21.735 16.3158 22.5 16.3158C23.265 16.3158 23.9738 16.5123 24.6263 16.9053C25.2787 17.2982 25.8525 17.814 26.3475 18.4526C26.9775 19.2386 27.5346 20.086 28.0188 20.9947C28.503 21.9035 29.0709 22.7509 29.7225 23.5368C30.51 24.4702 31.3029 25.4158 32.1012 26.3737C32.8995 27.3316 33.2991 28.4491 33.3 29.7263C33.3 30.8807 32.9566 31.8818 32.2699 32.7297C31.5833 33.5775 30.7341 34.001 29.7225 34C28.5075 34 27.3038 33.8895 26.1112 33.6684C24.9188 33.4474 23.715 33.3368 22.5 33.3368C21.285 33.3368 20.0813 33.4474 18.8888 33.6684C17.6962 33.8895 16.4925 34 15.2775 34Z" fill="#861928"/>
</svg>
