<svg width="89" height="94" viewBox="0 0 89 94" fill="none" xmlns="http://www.w3.org/2000/svg">
<ellipse cx="44.3732" cy="46.8814" rx="44.2935" ry="46.2484" fill="#FFDBCE"/>
<path d="M26.5 44.5789C24.68 44.5789 23.1417 43.8921 21.885 42.5184C20.6283 41.1447 20 39.4632 20 37.4737C20 35.4842 20.6283 33.8026 21.885 32.4289C23.1417 31.0553 24.68 30.3684 26.5 30.3684C28.32 30.3684 29.8583 31.0553 31.115 32.4289C32.3717 33.8026 33 35.4842 33 37.4737C33 39.4632 32.3717 41.1447 31.115 42.5184C29.8583 43.8921 28.32 44.5789 26.5 44.5789ZM38.2 33.2105C36.38 33.2105 34.8417 32.5237 33.585 31.15C32.3283 29.7763 31.7 28.0947 31.7 26.1053C31.7 24.1158 32.3283 22.4342 33.585 21.0605C34.8417 19.6868 36.38 19 38.2 19C40.02 19 41.5583 19.6868 42.815 21.0605C44.0717 22.4342 44.7 24.1158 44.7 26.1053C44.7 28.0947 44.0717 29.7763 42.815 31.15C41.5583 32.5237 40.02 33.2105 38.2 33.2105ZM53.8 33.2105C51.98 33.2105 50.4417 32.5237 49.185 31.15C47.9283 29.7763 47.3 28.0947 47.3 26.1053C47.3 24.1158 47.9283 22.4342 49.185 21.0605C50.4417 19.6868 51.98 19 53.8 19C55.62 19 57.1583 19.6868 58.415 21.0605C59.6716 22.4342 60.3 24.1158 60.3 26.1053C60.3 28.0947 59.6716 29.7763 58.415 31.15C57.1583 32.5237 55.62 33.2105 53.8 33.2105ZM65.5 44.5789C63.68 44.5789 62.1417 43.8921 60.885 42.5184C59.6283 41.1447 59 39.4632 59 37.4737C59 35.4842 59.6283 33.8026 60.885 32.4289C62.1417 31.0553 63.68 30.3684 65.5 30.3684C67.32 30.3684 68.8583 31.0553 70.115 32.4289C71.3717 33.8026 72 35.4842 72 37.4737C72 39.4632 71.3717 41.1447 70.115 42.5184C68.8583 43.8921 67.32 44.5789 65.5 44.5789ZM32.09 73C30.14 73 28.5037 72.1834 27.1812 70.5501C25.8587 68.9168 25.1983 66.9861 25.2 64.7579C25.2 62.2947 25.9696 60.1395 27.5088 58.2921C29.048 56.4447 30.5751 54.621 32.09 52.821C33.3467 51.3526 34.43 49.7544 35.34 48.0264C36.25 46.2984 37.3333 44.6756 38.59 43.1579C39.5433 41.9263 40.6483 40.9079 41.905 40.1026C43.1617 39.2974 44.5267 38.8947 46 38.8947C47.4733 38.8947 48.8383 39.2737 50.095 40.0316C51.3517 40.7895 52.4567 41.7842 53.41 43.0158C54.6233 44.5316 55.6963 46.1658 56.6288 47.9184C57.5613 49.6711 58.6551 51.3053 59.91 52.821C61.4267 54.621 62.9537 56.4447 64.4912 58.2921C66.0287 60.1395 66.7983 62.2947 66.8 64.7579C66.8 66.9842 66.1387 68.9149 64.8162 70.5501C63.4936 72.1853 61.8583 73.0019 59.91 73C57.57 73 55.2517 72.7868 52.955 72.3605C50.6583 71.9342 48.34 71.721 46 71.721C43.66 71.721 41.3417 71.9342 39.045 72.3605C36.7483 72.7868 34.43 73 32.09 73Z" fill="#861928"/>
</svg>
