<svg width="90" height="88" viewBox="0 0 90 88" fill="none" xmlns="http://www.w3.org/2000/svg">
<ellipse cx="44.9566" cy="44.1898" rx="44.5652" ry="43.7015" fill="#FFDBCE"/>
<path d="M19.043 51.7855L41.9834 73.2025C42.9355 74.0912 44.1924 74.5863 45.5 74.5863C46.8076 74.5863 48.0645 74.0912 49.0166 73.2025L71.957 51.7855C75.8164 48.1928 78 43.1527 78 37.8842V37.1478C78 28.2738 71.5889 20.7074 62.8418 19.2474C57.0527 18.2826 51.1621 20.1742 47.0234 24.3129L45.5 25.8363L43.9766 24.3129C39.8379 20.1742 33.9473 18.2826 28.1582 19.2474C19.4111 20.7074 13 28.2738 13 37.1478V37.8842C13 43.1527 15.1836 48.1928 19.043 51.7855Z" fill="#861928"/>
</svg>
