<svg width="386" height="348" viewBox="0 0 386 348" fill="none" xmlns="http://www.w3.org/2000/svg">
<ellipse cx="170.207" cy="168.515" rx="170.207" ry="163.472" fill="#FFDBCE"/>
<g clip-path="url(#clip0_123_650)">
<path d="M100.98 195.775L107.2 198.867C110.045 200.316 113.179 201.041 116.409 201.041C127.74 201.041 136.949 191.813 136.949 180.46V170.122C136.949 153.068 123.111 139.203 106.091 139.203H75.185C58.1651 139.203 44.3273 153.068 44.3273 170.122V180.46C44.3273 191.813 53.5364 201.041 64.867 201.041C68.0492 201.041 71.1832 200.316 74.0761 198.867L80.2958 195.775L84.3459 193.746L78.6083 189.929C76.4386 188.48 75.185 186.064 75.185 183.504V181.716C75.185 175.291 80.3441 170.122 86.7567 170.122H94.4711C100.884 170.122 106.043 175.291 106.043 181.716V183.504C106.043 186.064 104.741 188.48 102.619 189.929L96.9301 193.746L100.98 195.775ZM96.8336 219.64L90.6139 216.5L84.3941 219.592C78.319 222.636 71.6171 224.23 64.867 224.23C63.1312 224.23 61.4437 224.133 59.7562 223.94V224.23C59.7562 241.284 73.5939 255.149 90.6139 255.149H121.472C130.006 255.149 136.9 262.057 136.9 270.608C136.9 279.159 130.006 286.068 121.472 286.068H198.616V262.879V255.149C198.616 243.699 204.836 233.699 214.045 228.385C218.577 225.776 223.832 224.23 229.474 224.23V216.5C229.474 203.698 239.84 193.311 252.617 193.311C256.86 193.311 260.331 196.789 260.331 201.041V216.5V224.23V247.419C260.331 251.67 263.803 255.149 268.046 255.149C272.289 255.149 275.76 251.67 275.76 247.419V199.253C275.76 175.967 260.91 155.29 238.827 147.899L234.729 146.546C230.872 145.242 228.654 141.184 229.715 137.222C230.775 133.261 234.681 130.845 238.683 131.618L248.278 133.55C291.189 142.15 322.047 179.88 322.047 223.698V224.23C322.047 283.99 273.687 332.446 214.045 332.446H213.514H136.9H136.611C77.1136 332.446 28.8985 284.135 28.8985 224.52V224.23V205.292C24.0287 198.239 21.184 189.688 21.184 180.46V170.122V169.445C16.7 167.851 13.4696 163.6 13.4696 158.527C13.4696 152.102 18.6286 146.932 25.0412 146.932H26.3913C35.07 128.671 53.6328 116.014 75.185 116.014H106.043C127.595 116.014 146.158 128.671 154.837 146.932H156.187C162.599 146.932 167.758 152.102 167.758 158.527C167.758 163.6 164.528 167.851 160.044 169.445V170.122V180.46C160.044 181.137 160.044 181.813 159.996 182.538C165.781 179.542 172.387 177.9 179.33 177.9H183.187C191.721 177.9 198.616 184.808 198.616 193.359C198.616 201.91 191.721 208.819 183.187 208.819H179.33C172.917 208.819 167.758 213.988 167.758 220.413V224.278H194.952C187.623 232.491 183.187 243.313 183.187 255.197H167.758C147.363 255.197 130.054 241.96 123.882 223.65C121.423 224.085 118.916 224.278 116.361 224.278C109.562 224.278 102.909 222.684 96.8336 219.64ZM59.7562 162.392C61.8022 162.392 63.7644 163.206 65.2111 164.656C66.6578 166.106 67.4706 168.072 67.4706 170.122C67.4706 172.172 66.6578 174.138 65.2111 175.587C63.7644 177.037 61.8022 177.851 59.7562 177.851C57.7102 177.851 55.748 177.037 54.3013 175.587C52.8545 174.138 52.0417 172.172 52.0417 170.122C52.0417 168.072 52.8545 166.106 54.3013 164.656C55.748 163.206 57.7102 162.392 59.7562 162.392ZM113.757 170.122C113.757 168.072 114.57 166.106 116.017 164.656C117.463 163.206 119.426 162.392 121.472 162.392C123.518 162.392 125.48 163.206 126.927 164.656C128.373 166.106 129.186 168.072 129.186 170.122C129.186 172.172 128.373 174.138 126.927 175.587C125.48 177.037 123.518 177.851 121.472 177.851C119.426 177.851 117.463 177.037 116.017 175.587C114.57 174.138 113.757 172.172 113.757 170.122Z" fill="#4F000B"/>
</g>
<g filter="url(#filter0_i_123_650)">
<path d="M47.939 62.656L53.827 61.696V15.104L47.939 14.208V12.8H68.035C74.3497 12.8 79.043 14.144 82.115 16.832C85.187 19.52 86.723 23.4027 86.723 28.48C86.723 33.5573 85.187 37.44 82.115 40.128C79.043 42.816 74.3497 44.16 68.035 44.16H60.867V61.696L66.755 62.656V64H47.939V62.656ZM67.139 42.624C75.0324 42.624 78.979 38.336 78.979 29.76V27.2C78.979 18.6667 75.0324 14.4 67.139 14.4H60.867V42.624H67.139ZM107.527 64.64C104.37 64.64 101.511 63.936 98.951 62.528C96.391 61.0773 94.3644 59.0507 92.871 56.448C91.3777 53.8453 90.631 50.8373 90.631 47.424C90.631 44.0107 91.3564 41.024 92.807 38.464C94.3004 35.8613 96.2844 33.856 98.759 32.448C101.276 30.9973 104.071 30.272 107.143 30.272C109.831 30.272 112.242 30.8693 114.375 32.064C116.508 33.2587 118.172 34.9227 119.367 37.056C120.562 39.1467 121.18 41.5573 121.223 44.288H97.671V50.624C97.671 54.3787 98.503 57.4293 100.167 59.776C101.874 62.08 104.327 63.232 107.527 63.232C110.471 63.232 113.074 62.4 115.335 60.736C117.596 59.072 118.983 56.9173 119.495 54.272H120.967C120.37 57.4293 118.855 59.9467 116.423 61.824C113.991 63.7013 111.026 64.64 107.527 64.64ZM114.183 42.688C114.183 38.976 113.607 36.224 112.455 34.432C111.303 32.5973 109.511 31.68 107.079 31.68C104.22 31.68 102.002 32.6827 100.423 34.688C98.8444 36.6933 97.9484 39.36 97.735 42.688H114.183ZM138.73 64.64C135.914 64.64 133.653 63.936 131.946 62.528C130.282 61.12 129.45 58.88 129.45 55.808V32.768L124.906 32.128V30.848H129.45V25.536L135.85 23.936V30.848H144.17V32.128L135.85 32.768V55.68C135.85 60.2027 137.471 62.464 140.714 62.464C141.397 62.464 142.037 62.3573 142.634 62.144C143.274 61.9307 143.765 61.7173 144.106 61.504C144.49 61.2907 144.725 61.1413 144.81 61.056L145.642 62.08C143.722 63.7867 141.418 64.64 138.73 64.64ZM160.052 64.64C156.553 64.64 153.63 63.8933 151.284 62.4C148.937 60.9067 147.764 58.9653 147.764 56.576C147.764 55.3387 148.084 54.3787 148.724 53.696C149.406 52.9707 150.302 52.608 151.412 52.608C152.265 52.608 152.99 52.8213 153.588 53.248C154.185 53.6747 154.612 54.272 154.868 55.04C153.929 56.064 153.46 57.152 153.46 58.304C153.46 59.6267 154.057 60.7787 155.252 61.76C156.446 62.7413 158.046 63.232 160.052 63.232C162.74 63.232 164.937 62.6347 166.644 61.44C168.35 60.2027 169.204 58.56 169.204 56.512C169.204 55.3173 168.841 54.4213 168.116 53.824C167.39 53.2267 165.982 52.544 163.892 51.776L154.228 48.256C150.43 46.8907 148.532 44.352 148.532 40.64C148.532 37.6107 149.577 35.136 151.668 33.216C153.758 31.2533 156.638 30.272 160.308 30.272C163.337 30.272 165.918 30.976 168.052 32.384C170.228 33.7493 171.316 35.712 171.316 38.272C171.316 39.296 171.038 40.128 170.484 40.768C169.929 41.3653 169.204 41.664 168.308 41.664C167.412 41.664 166.665 41.4293 166.068 40.96C165.513 40.448 165.236 39.7653 165.236 38.912C165.79 38.4853 166.174 38.0373 166.388 37.568C166.601 37.056 166.708 36.4587 166.708 35.776C166.708 34.5813 166.174 33.6 165.108 32.832C164.084 32.064 162.484 31.68 160.308 31.68C158.43 31.68 156.809 31.9787 155.444 32.576C154.121 33.1307 153.118 33.8773 152.436 34.816C151.753 35.7547 151.412 36.7147 151.412 37.696C151.412 38.72 151.774 39.5307 152.5 40.128C153.268 40.7253 154.654 41.3867 156.66 42.112L165.62 45.312C167.71 46.08 169.289 47.1467 170.356 48.512C171.422 49.8773 171.956 51.648 171.956 53.824C171.956 56.9387 170.974 59.52 169.012 61.568C167.049 63.616 164.062 64.64 160.052 64.64ZM173.337 64V62.656L179.609 60.096L198.105 11.52H199.129L216.601 61.696L222.489 62.656V64H203.673V62.656L208.921 61.824L203.481 46.656H186.457L181.273 60.096L187.033 62.656V64H173.337ZM186.969 45.312H203.033L195.353 22.784L186.969 45.312ZM222.473 80.832L226.953 80.192V32.832L222.473 32.192V30.912H233.353V37.632C234.42 35.328 235.849 33.536 237.641 32.256C239.476 30.9333 241.652 30.272 244.169 30.272C247.198 30.272 249.865 30.9973 252.169 32.448C254.473 33.856 256.265 35.8613 257.545 38.464C258.825 41.024 259.465 44.032 259.465 47.488C259.465 50.944 258.825 53.9733 257.545 56.576C256.265 59.136 254.473 61.12 252.169 62.528C249.865 63.936 247.198 64.64 244.169 64.64C241.652 64.64 239.476 64 237.641 62.72C235.849 61.3973 234.42 59.6053 233.353 57.344V80.192L239.369 80.832V82.112H222.473V80.832ZM243.529 63.04C249.46 63.04 252.425 58.9227 252.425 50.688V44.288C252.425 36.0107 249.46 31.872 243.529 31.872C241.652 31.872 239.945 32.4267 238.409 33.536C236.873 34.6027 235.657 36.0533 234.761 37.888C233.865 39.7227 233.396 41.7067 233.353 43.84V50.688C233.353 52.864 233.78 54.912 234.633 56.832C235.529 58.7093 236.745 60.224 238.281 61.376C239.86 62.4853 241.609 63.04 243.529 63.04ZM263.536 80.832L268.016 80.192V32.832L263.536 32.192V30.912H274.416V37.632C275.482 35.328 276.912 33.536 278.704 32.256C280.538 30.9333 282.714 30.272 285.232 30.272C288.261 30.272 290.928 30.9973 293.232 32.448C295.536 33.856 297.328 35.8613 298.608 38.464C299.888 41.024 300.528 44.032 300.528 47.488C300.528 50.944 299.888 53.9733 298.608 56.576C297.328 59.136 295.536 61.12 293.232 62.528C290.928 63.936 288.261 64.64 285.232 64.64C282.714 64.64 280.538 64 278.704 62.72C276.912 61.3973 275.482 59.6053 274.416 57.344V80.192L280.432 80.832V82.112H263.536V80.832ZM284.592 63.04C290.522 63.04 293.488 58.9227 293.488 50.688V44.288C293.488 36.0107 290.522 31.872 284.592 31.872C282.714 31.872 281.008 32.4267 279.472 33.536C277.936 34.6027 276.72 36.0533 275.824 37.888C274.928 39.7227 274.458 41.7067 274.416 43.84V50.688C274.416 52.864 274.842 54.912 275.696 56.832C276.592 58.7093 277.808 60.224 279.344 61.376C280.922 62.4853 282.672 63.04 284.592 63.04Z" fill="#4F000B"/>
</g>
<defs>
<filter id="filter0_i_123_650" x="47.9391" y="11.52" width="252.589" height="74.592" filterUnits="userSpaceOnUse" color-interpolation-filters="sRGB">
<feFlood flood-opacity="0" result="BackgroundImageFix"/>
<feBlend mode="normal" in="SourceGraphic" in2="BackgroundImageFix" result="shape"/>
<feColorMatrix in="SourceAlpha" type="matrix" values="0 0 0 0 0 0 0 0 0 0 0 0 0 0 0 0 0 0 127 0" result="hardAlpha"/>
<feOffset dy="4"/>
<feGaussianBlur stdDeviation="2"/>
<feComposite in2="hardAlpha" operator="arithmetic" k2="-1" k3="1"/>
<feColorMatrix type="matrix" values="0 0 0 0 0 0 0 0 0 0 0 0 0 0 0 0 0 0 0.25 0"/>
<feBlend mode="normal" in2="shape" result="effect1_innerShadow_123_650"/>
</filter>
<clipPath id="clip0_123_650">
<rect width="308.577" height="247.352" fill="white" transform="translate(13.4696 100.554)"/>
</clipPath>
</defs>
</svg>
