<svg width="245" height="178" viewBox="0 0 245 178" fill="none" xmlns="http://www.w3.org/2000/svg">
<ellipse cx="88.1896" cy="85.052" rx="88.1896" ry="84.7" fill="#FFDBCE"/>
<g clip-path="url(#clip0_123_640)">
<path d="M52.3209 99.1764L55.5435 100.778C57.0175 101.529 58.6413 101.905 60.315 101.905C66.1858 101.905 70.9573 97.1238 70.9573 91.2415V85.8847C70.9573 77.0487 63.7875 69.8647 54.969 69.8647H38.9556C30.1371 69.8647 22.9673 77.0487 22.9673 85.8847V91.2415C22.9673 97.1238 27.7388 101.905 33.6096 101.905C35.2583 101.905 36.8822 101.529 38.3811 100.778L41.6037 99.1764L43.7022 98.1251L40.7294 96.1476C39.6052 95.3967 38.9556 94.1451 38.9556 92.8184V91.8923C38.9556 88.5631 41.6287 85.8847 44.9513 85.8847H48.9483C52.2709 85.8847 54.944 88.5631 54.944 91.8923V92.8184C54.944 94.1451 54.2695 95.3967 53.1703 96.1476L50.2224 98.1251L52.3209 99.1764ZM50.1725 111.542L46.9498 109.915L43.7272 111.517C40.5795 113.094 37.107 113.92 33.6096 113.92C32.7102 113.92 31.8358 113.87 30.9615 113.77V113.92C30.9615 122.756 38.1312 129.94 46.9498 129.94H62.9381C67.3599 129.94 70.9323 133.519 70.9323 137.95C70.9323 142.38 67.3599 145.96 62.9381 145.96H102.909V133.945V129.94C102.909 124.007 106.132 118.826 110.903 116.073C113.251 114.721 115.974 113.92 118.897 113.92V109.915C118.897 103.282 124.268 97.8998 130.888 97.8998C133.087 97.8998 134.886 99.702 134.886 101.905V109.915V113.92V125.935C134.886 128.138 136.684 129.94 138.883 129.94C141.081 129.94 142.88 128.138 142.88 125.935V100.979C142.88 88.9135 135.185 78.2001 123.744 74.3703L121.62 73.6695C119.622 72.9936 118.473 70.891 119.022 68.8384C119.572 66.7859 121.595 65.5343 123.669 65.9348L128.64 66.936C150.874 71.3916 166.862 90.9411 166.862 113.644V113.92C166.862 144.884 141.806 169.99 110.903 169.99H110.628H70.9323H70.7824C39.9549 169.99 14.9732 144.959 14.9732 114.07V113.92V104.108C12.45 100.453 10.9761 96.0224 10.9761 91.2415V85.8847V85.5343C8.65278 84.7083 6.979 82.5055 6.979 79.8772C6.979 76.5481 9.65205 73.8697 12.9746 73.8697H13.6741C18.1708 64.4079 27.7888 57.8497 38.9556 57.8497H54.944C66.1108 57.8497 75.7288 64.4079 80.2255 73.8697H80.925C84.2476 73.8697 86.9206 76.5481 86.9206 79.8772C86.9206 82.5055 85.2468 84.7083 82.9235 85.5343V85.8847V91.2415C82.9235 91.5919 82.9235 91.9423 82.8985 92.3178C85.8964 90.7659 89.3189 89.9148 92.9162 89.9148H94.9148C99.3365 89.9148 102.909 93.4943 102.909 97.9248C102.909 102.355 99.3365 105.935 94.9148 105.935H92.9162C89.5937 105.935 86.9206 108.613 86.9206 111.942V113.945H101.01C97.2131 118.2 94.9148 123.807 94.9148 129.965H86.9206C76.3533 129.965 67.3849 123.106 64.1872 113.619C62.9131 113.845 61.6141 113.945 60.2901 113.945C56.7676 113.945 53.3202 113.119 50.1725 111.542ZM30.9615 81.8797C32.0216 81.8797 33.0382 82.3017 33.7878 83.0528C34.5374 83.8039 34.9586 84.8226 34.9586 85.8847C34.9586 86.9469 34.5374 87.9656 33.7878 88.7167C33.0382 89.4678 32.0216 89.8898 30.9615 89.8898C29.9014 89.8898 28.8847 89.4678 28.1351 88.7167C27.3855 87.9656 26.9644 86.9469 26.9644 85.8847C26.9644 84.8226 27.3855 83.8039 28.1351 83.0528C28.8847 82.3017 29.9014 81.8797 30.9615 81.8797ZM58.941 85.8847C58.941 84.8226 59.3622 83.8039 60.1118 83.0528C60.8614 82.3017 61.878 81.8797 62.9381 81.8797C63.9982 81.8797 65.0149 82.3017 65.7645 83.0528C66.5141 83.8039 66.9352 84.8226 66.9352 85.8847C66.9352 86.9469 66.5141 87.9656 65.7645 88.7167C65.0149 89.4678 63.9982 89.8898 62.9381 89.8898C61.878 89.8898 60.8614 89.4678 60.1118 88.7167C59.3622 87.9656 58.941 86.9469 58.941 85.8847Z" fill="#4F000B"/>
</g>
<g filter="url(#filter0_i_123_640)">
<path d="M18.44 36.244L21.752 35.704V9.496L18.44 8.992V8.2H29.744C33.296 8.2 35.936 8.956 37.664 10.468C39.392 11.98 40.256 14.164 40.256 17.02C40.256 19.876 39.392 22.06 37.664 23.572C35.936 25.084 33.296 25.84 29.744 25.84H25.712V35.704L29.024 36.244V37H18.44V36.244ZM29.24 24.976C33.68 24.976 35.9 22.564 35.9 17.74V16.3C35.9 11.5 33.68 9.1 29.24 9.1H25.712V24.976H29.24ZM51.9583 37.36C50.1823 37.36 48.5743 36.964 47.1343 36.172C45.6943 35.356 44.5543 34.216 43.7143 32.752C42.8743 31.288 42.4543 29.596 42.4543 27.676C42.4543 25.756 42.8623 24.076 43.6783 22.636C44.5183 21.172 45.6343 20.044 47.0263 19.252C48.4423 18.436 50.0143 18.028 51.7423 18.028C53.2543 18.028 54.6103 18.364 55.8103 19.036C57.0103 19.708 57.9463 20.644 58.6183 21.844C59.2903 23.02 59.6383 24.376 59.6623 25.912H46.4143V29.476C46.4143 31.588 46.8823 33.304 47.8183 34.624C48.7783 35.92 50.1583 36.568 51.9583 36.568C53.6143 36.568 55.0783 36.1 56.3503 35.164C57.6223 34.228 58.4023 33.016 58.6903 31.528H59.5183C59.1823 33.304 58.3303 34.72 56.9623 35.776C55.5943 36.832 53.9263 37.36 51.9583 37.36ZM55.7023 25.012C55.7023 22.924 55.3783 21.376 54.7303 20.368C54.0823 19.336 53.0743 18.82 51.7063 18.82C50.0983 18.82 48.8503 19.384 47.9623 20.512C47.0743 21.64 46.5703 23.14 46.4503 25.012H55.7023ZM69.5099 37.36C67.9259 37.36 66.6539 36.964 65.6939 36.172C64.7579 35.38 64.2899 34.12 64.2899 32.392V19.432L61.7339 19.072V18.352H64.2899V15.364L67.8899 14.464V18.352H72.5699V19.072L67.8899 19.432V32.32C67.8899 34.864 68.8019 36.136 70.6259 36.136C71.0099 36.136 71.3699 36.076 71.7059 35.956C72.0659 35.836 72.3419 35.716 72.5339 35.596C72.7499 35.476 72.8819 35.392 72.9299 35.344L73.3979 35.92C72.3179 36.88 71.0219 37.36 69.5099 37.36ZM81.5033 37.36C79.5353 37.36 77.8913 36.94 76.5713 36.1C75.2513 35.26 74.5913 34.168 74.5913 32.824C74.5913 32.128 74.7713 31.588 75.1313 31.204C75.5153 30.796 76.0193 30.592 76.6433 30.592C77.1233 30.592 77.5313 30.712 77.8673 30.952C78.2033 31.192 78.4433 31.528 78.5873 31.96C78.0593 32.536 77.7953 33.148 77.7953 33.796C77.7953 34.54 78.1313 35.188 78.8033 35.74C79.4753 36.292 80.3753 36.568 81.5033 36.568C83.0153 36.568 84.2513 36.232 85.2113 35.56C86.1713 34.864 86.6513 33.94 86.6513 32.788C86.6513 32.116 86.4473 31.612 86.0393 31.276C85.6313 30.94 84.8393 30.556 83.6633 30.124L78.2273 28.144C76.0913 27.376 75.0233 25.948 75.0233 23.86C75.0233 22.156 75.6113 20.764 76.7873 19.684C77.9633 18.58 79.5833 18.028 81.6473 18.028C83.3513 18.028 84.8033 18.424 86.0033 19.216C87.2273 19.984 87.8393 21.088 87.8393 22.528C87.8393 23.104 87.6833 23.572 87.3713 23.932C87.0593 24.268 86.6513 24.436 86.1473 24.436C85.6433 24.436 85.2233 24.304 84.8873 24.04C84.5753 23.752 84.4193 23.368 84.4193 22.888C84.7313 22.648 84.9473 22.396 85.0673 22.132C85.1873 21.844 85.2473 21.508 85.2473 21.124C85.2473 20.452 84.9473 19.9 84.3473 19.468C83.7713 19.036 82.8713 18.82 81.6473 18.82C80.5913 18.82 79.6793 18.988 78.9113 19.324C78.1673 19.636 77.6033 20.056 77.2193 20.584C76.8353 21.112 76.6433 21.652 76.6433 22.204C76.6433 22.78 76.8473 23.236 77.2553 23.572C77.6873 23.908 78.4673 24.28 79.5953 24.688L84.6353 26.488C85.8113 26.92 86.6993 27.52 87.2993 28.288C87.8993 29.056 88.1993 30.052 88.1993 31.276C88.1993 33.028 87.6473 34.48 86.5433 35.632C85.4393 36.784 83.7593 37.36 81.5033 37.36ZM88.9764 37V36.244L92.5044 34.804L102.908 7.48H103.484L113.312 35.704L116.624 36.244V37H106.04V36.244L108.992 35.776L105.932 27.244H96.3564L93.4404 34.804L96.6804 36.244V37H88.9764ZM96.6444 26.488H105.68L101.36 13.816L96.6444 26.488ZM116.615 46.468L119.135 46.108V19.468L116.615 19.108V18.388H122.735V22.168C123.335 20.872 124.139 19.864 125.147 19.144C126.179 18.4 127.403 18.028 128.819 18.028C130.523 18.028 132.023 18.436 133.319 19.252C134.615 20.044 135.623 21.172 136.343 22.636C137.063 24.076 137.423 25.768 137.423 27.712C137.423 29.656 137.063 31.36 136.343 32.824C135.623 34.264 134.615 35.38 133.319 36.172C132.023 36.964 130.523 37.36 128.819 37.36C127.403 37.36 126.179 37 125.147 36.28C124.139 35.536 123.335 34.528 122.735 33.256V46.108L126.119 46.468V47.188H116.615V46.468ZM128.459 36.46C131.795 36.46 133.463 34.144 133.463 29.512V25.912C133.463 21.256 131.795 18.928 128.459 18.928C127.403 18.928 126.443 19.24 125.579 19.864C124.715 20.464 124.031 21.28 123.527 22.312C123.023 23.344 122.759 24.46 122.735 25.66V29.512C122.735 30.736 122.975 31.888 123.455 32.968C123.959 34.024 124.643 34.876 125.507 35.524C126.395 36.148 127.379 36.46 128.459 36.46ZM139.713 46.468L142.233 46.108V19.468L139.713 19.108V18.388H145.833V22.168C146.433 20.872 147.237 19.864 148.245 19.144C149.277 18.4 150.501 18.028 151.917 18.028C153.621 18.028 155.121 18.436 156.417 19.252C157.713 20.044 158.721 21.172 159.441 22.636C160.161 24.076 160.521 25.768 160.521 27.712C160.521 29.656 160.161 31.36 159.441 32.824C158.721 34.264 157.713 35.38 156.417 36.172C155.121 36.964 153.621 37.36 151.917 37.36C150.501 37.36 149.277 37 148.245 36.28C147.237 35.536 146.433 34.528 145.833 33.256V46.108L149.217 46.468V47.188H139.713V46.468ZM151.557 36.46C154.893 36.46 156.561 34.144 156.561 29.512V25.912C156.561 21.256 154.893 18.928 151.557 18.928C150.501 18.928 149.541 19.24 148.677 19.864C147.813 20.464 147.129 21.28 146.625 22.312C146.121 23.344 145.857 24.46 145.833 25.66V29.512C145.833 30.736 146.073 31.888 146.553 32.968C147.057 34.024 147.741 34.876 148.605 35.524C149.493 36.148 150.477 36.46 151.557 36.46Z" fill="#720026"/>
</g>
<defs>
<filter id="filter0_i_123_640" x="18.44" y="7.47998" width="142.081" height="43.708" filterUnits="userSpaceOnUse" color-interpolation-filters="sRGB">
<feFlood flood-opacity="0" result="BackgroundImageFix"/>
<feBlend mode="normal" in="SourceGraphic" in2="BackgroundImageFix" result="shape"/>
<feColorMatrix in="SourceAlpha" type="matrix" values="0 0 0 0 0 0 0 0 0 0 0 0 0 0 0 0 0 0 127 0" result="hardAlpha"/>
<feOffset dy="4"/>
<feGaussianBlur stdDeviation="2"/>
<feComposite in2="hardAlpha" operator="arithmetic" k2="-1" k3="1"/>
<feColorMatrix type="matrix" values="0 0 0 0 0 0 0 0 0 0 0 0 0 0 0 0 0 0 0.25 0"/>
<feBlend mode="normal" in2="shape" result="effect1_innerShadow_123_640"/>
</filter>
<clipPath id="clip0_123_640">
<rect width="159.883" height="128.16" fill="white" transform="translate(6.979 49.8397)"/>
</clipPath>
</defs>
</svg>
