<svg width="21" height="21" viewBox="0 0 21 21" fill="none" xmlns="http://www.w3.org/2000/svg">
<rect width="21" height="21" rx="2" fill="#FFDBCE"/>
<g clip-path="url(#clip0_206_4)">
<path d="M10.5 5.75C8.67643 5.75 7.21619 6.6125 6.15317 7.63906C5.09692 8.65625 4.3905 9.875 4.05647 10.7117C3.98199 10.8969 3.98199 11.1031 4.05647 11.2883C4.3905 12.125 5.09692 13.3438 6.15317 14.3609C7.21619 15.3875 8.67643 16.25 10.5 16.25C12.3237 16.25 13.7839 15.3875 14.8469 14.3609C15.9032 13.3414 16.6096 12.125 16.9459 11.2883C17.0204 11.1031 17.0204 10.8969 16.9459 10.7117C16.6096 9.875 15.9032 8.65625 14.8469 7.63906C13.7839 6.6125 12.3237 5.75 10.5 5.75ZM7.25005 11C7.25005 10.1049 7.59246 9.24645 8.20195 8.61351C8.81144 7.98058 9.63809 7.625 10.5 7.625C11.362 7.625 12.1887 7.98058 12.7981 8.61351C13.4076 9.24645 13.75 10.1049 13.75 11C13.75 11.8951 13.4076 12.7536 12.7981 13.3865C12.1887 14.0194 11.362 14.375 10.5 14.375C9.63809 14.375 8.81144 14.0194 8.20195 13.3865C7.59246 12.7536 7.25005 11.8951 7.25005 11ZM10.5 9.5C10.5 10.3273 9.8523 11 9.0556 11C8.89536 11 8.74189 10.9719 8.59744 10.9227C8.47331 10.8805 8.32887 10.9602 8.33338 11.0961C8.34015 11.2578 8.36272 11.4195 8.4056 11.5812C8.7148 12.7812 9.90421 13.4938 11.0598 13.1727C12.2153 12.8516 12.9014 11.6164 12.5922 10.4164C12.3417 9.44375 11.5134 8.78984 10.5926 8.75C10.4617 8.74531 10.3849 8.89297 10.4256 9.02422C10.473 9.17422 10.5 9.33359 10.5 9.5Z" fill="#5A101A"/>
</g>
<defs>
<clipPath id="clip0_206_4">
<rect width="13" height="12" fill="white" transform="translate(4 5)"/>
</clipPath>
</defs>
</svg>
